<?xml version="1.0" standalone="no"?>
<!DOCTYPE svg PUBLIC "-//W3C//DTD SVG 20010904//EN"
 "http://www.w3.org/TR/2001/REC-SVG-20010904/DTD/svg10.dtd">
<svg version="1.0" xmlns="http://www.w3.org/2000/svg"
 width="672.000000pt" height="178.000000pt" viewBox="0 0 672.000000 178.000000"
 preserveAspectRatio="xMidYMid meet">

<g transform="translate(0.000000,178.000000) scale(0.100000,-0.100000)"
fill="#000000" stroke="none">
<path d="M723 1742 c-143 -47 -229 -163 -251 -337 l-7 -60 -80 -6 c-84 -5
-137 -26 -187 -72 -99 -92 -114 -318 -33 -484 27 -54 54 -88 109 -141 66 -60
102 -83 294 -180 216 -110 256 -124 280 -100 18 18 14 66 -7 87 -11 11 -93 55
-183 99 -251 121 -341 191 -395 307 -24 53 -28 72 -28 160 0 115 16 155 75
190 33 19 54 20 350 22 283 3 316 5 328 20 16 22 15 44 -4 71 -15 21 -20 22
-206 22 l-191 0 7 63 c4 34 15 80 25 102 57 127 207 177 330 109 100 -54 125
-119 141 -367 6 -94 16 -182 21 -195 14 -36 53 -48 85 -27 27 17 27 18 21 105
-8 102 -5 105 80 94 58 -7 95 -30 117 -72 8 -15 21 -92 30 -172 9 -80 31 -255
47 -390 41 -329 42 -366 6 -413 -34 -45 -74 -57 -192 -57 -101 0 -115 -7 -115
-55 0 -50 12 -55 145 -55 110 0 126 2 173 26 60 30 106 87 127 158 14 45 12
68 -15 300 -17 138 -39 330 -50 426 -11 96 -25 195 -31 220 -22 94 -87 166
-170 190 -19 6 -64 10 -101 10 l-68 0 0 33 c0 100 -56 233 -127 299 -79 75
-240 107 -350 70z"/>
<path d="M3025 1178 c-3 -24 -5 -205 -3 -403 l3 -360 68 -3 67 -3 0 193 c0
164 3 198 18 227 50 100 191 106 247 11 18 -31 20 -56 23 -232 l4 -198 65 0
65 0 -4 218 c-4 245 -11 278 -80 338 -50 44 -97 57 -180 52 -57 -5 -77 -11
-114 -37 l-44 -32 0 135 0 136 -64 0 -65 0 -6 -42z"/>
<path d="M5880 815 l0 -405 65 0 65 0 0 405 0 405 -65 0 -65 0 0 -405z"/>
<path d="M2523 1171 c-102 -35 -152 -96 -161 -196 -6 -69 24 -132 79 -167 23
-15 92 -43 154 -62 90 -29 118 -42 139 -67 90 -106 -84 -225 -194 -133 -16 14
-31 38 -35 54 -7 30 -7 30 -75 30 -38 0 -71 -3 -74 -8 -8 -14 30 -112 55 -138
12 -13 48 -37 78 -52 48 -23 68 -27 141 -27 64 1 96 6 130 21 126 58 176 208
105 316 -30 45 -85 75 -220 118 -114 38 -145 63 -145 121 0 67 78 111 159 89
38 -10 81 -52 81 -79 0 -7 28 -11 76 -11 l76 0 -7 28 c-12 48 -49 106 -84 129
-77 52 -187 66 -278 34z"/>
<path d="M470 1110 c-23 -23 -26 -81 -9 -145 19 -67 71 -105 292 -214 181 -88
209 -105 253 -154 58 -63 74 -107 74 -203 0 -58 -5 -77 -30 -120 -33 -59 -88
-106 -152 -131 -37 -15 -84 -18 -348 -18 -339 0 -350 2 -390 68 -25 40 -25 69
0 235 14 100 17 139 8 157 -18 41 -74 40 -97 -3 -4 -9 -19 -89 -32 -178 -20
-141 -21 -166 -9 -208 18 -67 70 -129 132 -160 l52 -26 322 0 c366 0 403 6
505 79 165 118 209 358 97 534 -51 80 -114 127 -279 207 -238 116 -251 123
-270 150 -10 14 -20 45 -23 70 -4 29 -13 51 -27 63 -28 22 -44 22 -69 -3z"/>
<path d="M3853 990 c-106 -54 -154 -129 -161 -256 -6 -115 14 -172 88 -246 71
-70 137 -94 241 -85 112 9 196 65 247 162 23 44 26 62 27 145 0 84 -3 102 -28
152 -51 104 -128 150 -262 156 -85 3 -94 2 -152 -28z m217 -102 c81 -41 117
-145 86 -244 -28 -90 -100 -134 -198 -121 -102 14 -165 152 -124 270 17 47 40
73 86 98 47 25 97 24 150 -3z"/>
<path d="M4424 1005 c-2 -5 -3 -203 -2 -440 l3 -430 63 -3 62 -3 0 180 0 181
45 -35 c25 -19 62 -39 83 -45 128 -35 268 31 323 152 34 76 34 220 1 293 -77
166 -276 218 -419 109 l-33 -25 0 35 c0 27 -4 36 -17 37 -74 4 -106 3 -109 -6z
m393 -127 c65 -39 99 -148 72 -229 -28 -83 -87 -129 -164 -129 -109 0 -185 94
-172 215 15 143 148 215 264 143z"/>
<path d="M5144 1005 c-2 -5 -3 -203 -2 -440 l3 -430 65 0 65 0 5 179 5 178 20
-22 c55 -61 166 -84 259 -55 72 23 128 72 163 143 24 50 27 69 28 152 0 78 -4
104 -23 145 -49 106 -139 165 -252 165 -68 0 -151 -29 -179 -63 -21 -26 -29
-20 -25 18 3 34 2 35 -32 36 -18 1 -48 2 -65 3 -17 0 -33 -3 -35 -9z m383
-116 c64 -31 93 -86 93 -175 0 -61 -4 -76 -30 -118 -94 -148 -310 -69 -310
114 0 88 35 149 105 181 52 24 89 24 142 -2z"/>
<path d="M6104 1009 c-3 -6 158 -416 208 -529 14 -30 23 -62 20 -70 -3 -8 -29
-70 -58 -136 -30 -67 -54 -127 -54 -133 0 -8 22 -11 67 -9 l67 3 38 90 c85
200 318 773 318 782 0 8 -99 7 -126 -2 -6 -1 -46 -98 -90 -214 -43 -116 -81
-211 -84 -211 -4 0 -27 57 -52 128 -58 157 -110 296 -115 301 -5 7 -134 7
-139 0z"/>
</g>
</svg>
